<?xml version="1.0" standalone="no"?><!DOCTYPE svg PUBLIC "-//W3C//DTD SVG 1.1//EN" "http://www.w3.org/Graphics/SVG/1.1/DTD/svg11.dtd"><svg t="1626085117430" class="icon" viewBox="0 0 1024 1024" version="1.1" xmlns="http://www.w3.org/2000/svg" p-id="12727" width="64" height="64" xmlns:xlink="http://www.w3.org/1999/xlink"><defs><style type="text/css"></style></defs><path d="M438.144 833.792V341.504a37.376 37.376 0 0 0-36.864-37.824 37.376 37.376 0 0 0-36.928 37.824v492.288c0 20.928 16.512 37.888 36.928 37.888a37.376 37.376 0 0 0 36.864-37.888zM364.352 76.416h295.04a37.376 37.376 0 0 0 36.864-37.824A37.376 37.376 0 0 0 659.392 0.704h-295.04a37.376 37.376 0 0 0-36.864 37.888c0 20.928 16.512 37.824 36.864 37.824z m479.424 189.376a37.376 37.376 0 0 0-36.864 37.888v568c0 41.792-33.024 75.712-73.728 75.712H290.56c-40.704 0-73.728-33.92-73.728-75.712v-568a37.376 37.376 0 0 0-36.864-37.888 37.376 37.376 0 0 0-36.928 37.888v643.712c0 41.792 33.024 75.712 73.792 75.712h590.016c40.704 0 73.728-33.92 73.728-75.712V303.68a37.376 37.376 0 0 0-36.864-37.888z m110.656-151.488H69.312a37.376 37.376 0 0 0-36.8 37.888c0 20.928 16.512 37.888 36.864 37.888h885.056a37.376 37.376 0 0 0 36.864-37.888 37.376 37.376 0 0 0-36.864-37.888z m-295.04 719.488V341.504a37.376 37.376 0 0 0-36.864-37.824 37.376 37.376 0 0 0-36.864 37.824v492.288c0 20.928 16.448 37.888 36.864 37.888a37.376 37.376 0 0 0 36.864-37.888z" p-id="12728" fill="#ffffff"></path></svg>