<?xml version="1.0" standalone="no"?><!DOCTYPE svg PUBLIC "-//W3C//DTD SVG 1.1//EN" "http://www.w3.org/Graphics/SVG/1.1/DTD/svg11.dtd"><svg t="1626156286215" class="icon" viewBox="0 0 1024 1024" version="1.1" xmlns="http://www.w3.org/2000/svg" p-id="1892" data-darkreader-inline-fill="" width="64" height="64" xmlns:xlink="http://www.w3.org/1999/xlink"><defs><style type="text/css"></style></defs><path d="M298.768867 725.264583c21.674652 21.674652 55.944496 21.674652 76.458616 0L972.458018 129.058047a54.271964 54.271964 0 0 0 0-77.482615c-21.708786-21.674652-55.978629-21.674652-76.492749 0L298.768867 647.713702a54.271964 54.271964 0 0 0 0 77.516748z" p-id="1893" fill="#ffffff" data-darkreader-inline-fill="" style="--darkreader-inline-fill:#181a1b;"></path><path d="M970.00042 430.967179c-29.28638 0-54.033031 23.654384-54.033031 54.033031v430.967179H108.031928V108.031928H538.964974c29.252247 0 52.906631-23.620251 54.033031-54.033031C593.032138 24.74665 569.34362 0 540.125507 0H53.998897C24.74665 0 0 23.620251 0 53.998897v916.001523c0 14.609057 5.631996 28.125848 15.769589 38.229308a53.589298 53.589298 0 0 0 38.229308 15.769589h916.001523a53.589298 53.589298 0 0 0 38.229308-15.769589 53.589298 53.589298 0 0 0 15.769589-38.229308v-485.034343c0-30.378646-24.74665-53.998897-53.998897-53.998898z" p-id="1894" fill="#ffffff" data-darkreader-inline-fill="" style="--darkreader-inline-fill:#181a1b;"></path></svg>