<?xml version="1.0" standalone="no"?><!DOCTYPE svg PUBLIC "-//W3C//DTD SVG 1.1//EN" "http://www.w3.org/Graphics/SVG/1.1/DTD/svg11.dtd"><svg t="1626079902702" class="icon" viewBox="0 0 1024 1024" version="1.1" xmlns="http://www.w3.org/2000/svg" p-id="8934" width="64" height="64" xmlns:xlink="http://www.w3.org/1999/xlink"><defs><style type="text/css"></style></defs><path d="M892.35911111 195.01511111H514.27555555c-11.37777778 0-21.73155555-6.59911111-26.39644444-16.95288889l-23.552-51.42755555c-21.04888889-46.08-67.01511111-75.54844445-117.64622222-75.54844445h-212.76444444C62.464 51.08622222 4.55111111 108.99911111 4.55111111 180.45155555V828.30222222c0 71.45244445 57.91288889 129.36533333 129.36533334 129.36533333h758.32888888c71.45244445 0 129.36533333-57.91288889 129.36533334-129.36533333V324.49422222c0.11377778-71.56622222-57.79911111-129.47911111-129.25155556-129.47911111zM948.90666667 828.30222222c0 31.28888889-25.37244445 56.54755555-56.54755556 56.54755556H133.91644445c-31.28888889 0-56.54755555-25.37244445-56.54755556-56.54755556V180.45155555c0-31.28888889 25.37244445-56.54755555 56.54755556-56.54755555h212.76444444c22.07288889 0 42.32533333 12.97066667 51.42755556 32.99555555l33.10933333 72.36266667c10.69511111 23.43822222 34.13333333 38.45688889 59.96088889 38.45688889h401.18044444c31.28888889 0 56.54755555 25.37244445 56.54755556 56.54755556v504.03555555z" p-id="8935" fill="#ffffff"></path><path d="M691.88266667 540.55822222H547.27111111V395.94666667c0-20.02488889-16.384-36.40888889-36.40888889-36.40888889s-36.40888889 16.384-36.40888889 36.40888889v144.61155555H329.84177778c-20.02488889 0-36.40888889 16.384-36.40888889 36.40888889s16.384 36.40888889 36.40888889 36.40888889H474.45333333v144.61155555c0 20.02488889 16.384 36.40888889 36.40888889 36.4088889s36.40888889-16.384 36.40888889-36.4088889V613.376h144.61155556c20.02488889 0 36.40888889-16.384 36.40888888-36.40888889s-16.384-36.40888889-36.40888888-36.40888889z" p-id="8936" fill="#ffffff"></path></svg>