<?xml version="1.0" standalone="no"?><!DOCTYPE svg PUBLIC "-//W3C//DTD SVG 1.1//EN" "http://www.w3.org/Graphics/SVG/1.1/DTD/svg11.dtd"><svg t="1626084838808" class="icon" viewBox="0 0 1170 1024" version="1.1" xmlns="http://www.w3.org/2000/svg" p-id="10406" width="73.125" height="64" xmlns:xlink="http://www.w3.org/1999/xlink"><defs><style type="text/css"></style></defs><path d="M1096.63 439.296H219.43a73.143 73.143 0 0 0-69.56 50.761l-76.507 235.74V73.947H438.93c0 80.75 65.39 146.14 146.067 146.14h365.421v146.14h73.07v-146.14a73.143 73.143 0 0 0-73.07-73.143H584.923a73.143 73.143 0 0 1-73.07-73.07A72.997 72.997 0 0 0 438.858 0.878H73.362A73.143 73.143 0 0 0 0.292 73.874v876.983a73.143 73.143 0 0 0 73.143 72.997h876.837a73.143 73.143 0 0 0 69.705-50.761l149.577-460.654a73.143 73.143 0 0 0-72.923-73.143zM954.15 950.857H73.362l142.41-438.418h880.64l-142.19 438.418z" p-id="10407" fill="#ffffff"></path></svg>