<?xml version="1.0" standalone="no"?><!DOCTYPE svg PUBLIC "-//W3C//DTD SVG 1.1//EN" "http://www.w3.org/Graphics/SVG/1.1/DTD/svg11.dtd"><svg t="1626098425308" class="icon" viewBox="0 0 1024 1024" version="1.1" xmlns="http://www.w3.org/2000/svg" p-id="13753" width="64" height="64" xmlns:xlink="http://www.w3.org/1999/xlink"><defs><style type="text/css"></style></defs><path d="M768 102.4A153.6 153.6 0 0 1 921.6 256v512a153.6 153.6 0 0 1-153.6 153.6h-512A153.6 153.6 0 0 1 102.4 768v-512A153.6 153.6 0 0 1 256 102.4h512z m0 76.8h-16.00853333v192c0 21.1968-17.16906667 38.4-38.4 38.4H310.40853333a38.4 38.4 0 0 1-38.4-38.4V179.2H256a76.8 76.8 0 0 0-76.8 75.53706667V768c0 41.984 33.6896 76.11733333 75.53706667 76.8H768a76.8 76.8 0 0 0 76.8-75.53706667V256a76.8 76.8 0 0 0-75.53706667-76.8H768z m-84.2752 0H340.30933333V341.33333333H683.69066667V179.2zM611.19146667 221.86666667c5.90506667 0 10.68373333 4.77866667 10.68373333 10.68373333v46.93333333c0 5.87093333-4.77866667 10.6496-10.68373333 10.6496h-46.93333334a10.6496 10.6496 0 0 1-10.6496-10.68373333V232.5504c0-5.90506667 4.77866667-10.68373333 10.6496-10.68373333h46.93333334z" fill="#ffffff" p-id="13754"></path></svg>